<svg viewBox="0 0 15 16" fill="none" xmlns="http://www.w3.org/2000/svg"><path d="M7.492 0c.387 0 .78.031 1.179.094 1.776.27 3.261 1.062 4.456 2.374C14.376 3.832 15 5.425 15 7.248a6.989 6.989 0 01-.783 3.24 7.174 7.174 0 01-2.204 2.555.518.518 0 01-.388.093.524.524 0 01-.339-.187.527.527 0 01-.065-.5.433.433 0 01.162-.203 6.221 6.221 0 001.906-2.202 6.004 6.004 0 00.678-2.796 5.994 5.994 0 00-.864-3.132 6.252 6.252 0 00-2.358-2.28A6.552 6.552 0 007.492 1a6.51 6.51 0 00-2.503.492 6.396 6.396 0 00-2.058 1.335 6.43 6.43 0 00-1.381 2 5.868 5.868 0 00-.517 2.42c0 1.073.267 2.075.8 3.008a6.29 6.29 0 002.187 2.257 6.525 6.525 0 003.052.968l-.888-1.359a.353.353 0 01-.073-.281.317.317 0 01.154-.234l.113-.079a.376.376 0 01.299-.03.41.41 0 01.234.171l1.534 2.312.096.156c.054.094.07.188.049.281a.425.425 0 01-.097.156.533.533 0 01-.08.063l-.162.078h-.016v.016l-2.47 1.218a.402.402 0 01-.3.039.365.365 0 01-.234-.18l-.048-.125a.308.308 0 01-.024-.28.362.362 0 01.202-.204l1.485-.734A7.44 7.44 0 013.375 13.3a7.372 7.372 0 01-2.47-2.608A6.89 6.89 0 010 7.248c0-.98.2-1.916.597-2.812a7.31 7.31 0 011.599-2.312A7.589 7.589 0 014.586.578 7.49 7.49 0 017.492 0z"/></svg>
